<?xml version="1.0"?>
<svg xmlns="http://www.w3.org/2000/svg" xmlns:xlink="http://www.w3.org/1999/xlink" xmlns:svgjs="http://svgjs.com/svgjs" version="1.1" width="512" height="512" x="0" y="0" viewBox="0 0 512 512" style="enable-background:new 0 0 512 512" xml:space="preserve" class=""><g>
<g xmlns="http://www.w3.org/2000/svg">
	<g>
		<path d="M504.01,242.142L330.062,141.714c-10.643-6.146-24,1.547-24,13.856v34.897H162.458c-0.003,0-0.005,0-0.008,0H52.054    c-8.836,0-16,7.164-16,16s7.164,16,16,16h87.554l-6.38,17.528H34.026c-8.836,0-16,7.164-16,16c0,8.836,7.164,16,16,16h87.555    l-6.38,17.528H16c-8.836,0-16,7.164-16,16c0,8.836,7.164,16,16,16c0.929,0,167.613,0.009,290.062,0.009v34.897    c0,12.323,13.362,19.999,24,13.856L504.01,269.857C514.653,263.71,514.673,248.299,504.01,242.142z" fill="#262729" data-original="#000000" style="" class=""/>
	</g>
</g>
<g xmlns="http://www.w3.org/2000/svg">
</g>
<g xmlns="http://www.w3.org/2000/svg">
</g>
<g xmlns="http://www.w3.org/2000/svg">
</g>
<g xmlns="http://www.w3.org/2000/svg">
</g>
<g xmlns="http://www.w3.org/2000/svg">
</g>
<g xmlns="http://www.w3.org/2000/svg">
</g>
<g xmlns="http://www.w3.org/2000/svg">
</g>
<g xmlns="http://www.w3.org/2000/svg">
</g>
<g xmlns="http://www.w3.org/2000/svg">
</g>
<g xmlns="http://www.w3.org/2000/svg">
</g>
<g xmlns="http://www.w3.org/2000/svg">
</g>
<g xmlns="http://www.w3.org/2000/svg">
</g>
<g xmlns="http://www.w3.org/2000/svg">
</g>
<g xmlns="http://www.w3.org/2000/svg">
</g>
<g xmlns="http://www.w3.org/2000/svg">
</g>
</g></svg>
